<svg width="52" height="52" viewBox="0 0 52 52" fill="none"
    xmlns="http://www.w3.org/2000/svg">
    <path d="M23.4 11.1571V31.5173L14.3 22.6097L10.608 26.2237L26 41.2902L41.392 26.2237L37.7 22.6097L28.6 31.5173V11.1571H23.4ZM26 51.8776C22.5856 51.8776 19.2047 51.2193 16.0502 49.9403C12.8958 48.6613 10.0295 46.7866 7.61522 44.4233C2.73928 39.6505 0 33.1771 0 26.4273C0 19.6774 2.73928 13.2041 7.61522 8.43121C12.4912 3.65835 19.1044 0.97699 26 0.97699C29.4144 0.97699 32.7953 1.63528 35.9498 2.91428C39.1042 4.19327 41.9705 6.06793 44.3848 8.43121C46.7991 10.7945 48.7142 13.6001 50.0209 16.6879C51.3275 19.7756 52 23.0851 52 26.4273C52 33.1771 49.2607 39.6505 44.3848 44.4233C39.5088 49.1962 32.8956 51.8776 26 51.8776Z" fill="#fff"/>
</svg>
